<svg width="103" height="34" viewBox="0 0 103 34" fill="none" xmlns="http://www.w3.org/2000/svg">
<g clip-path="url(#clip0_710_39)">
<mask id="mask0_710_39" style="mask-type:luminance" maskUnits="userSpaceOnUse" x="0" y="0" width="103" height="34">
<path d="M103 0H0V34H103V0Z" fill="white"/>
</mask>
<g mask="url(#mask0_710_39)">
<path d="M0 0.21875V15.5775H9.51565V12.9455H2.98855V8.66674H7.74637V6.03249H2.98855V2.853H9.29476V0.21875H0Z" fill="white"/>
<mask id="mask1_710_39" style="mask-type:luminance" maskUnits="userSpaceOnUse" x="0" y="0" width="103" height="34">
<path d="M103 0H0V34H103V0Z" fill="white"/>
</mask>
<g mask="url(#mask1_710_39)">
<path d="M12.0608 15.5779V4.93577H14.8285V5.79196C15.6479 5.13285 16.6662 4.7168 17.8612 4.7168C19.3433 4.7168 20.6951 5.37591 21.5787 6.42917C22.2877 7.26346 22.6853 8.33862 22.6853 10.1583V15.5779H19.8072V9.93931C19.8072 8.88605 19.5642 8.33643 19.1644 7.94228C18.7889 7.57002 18.2124 7.34886 17.5475 7.34886C16.3305 7.34886 15.3343 8.11745 14.9367 8.66489V15.5757H12.0586L12.0608 15.5779Z" fill="white"/>
<path d="M28.6594 0H25.7812V15.5778H28.6594V0Z" fill="white"/>
<path d="M42.2707 15.3586H39.503V14.5025C38.6173 15.2492 37.599 15.5776 36.5145 15.5776C34.9219 15.5776 33.4155 14.8747 32.4635 13.7777C31.6219 12.812 31.0918 11.4959 31.0918 10.0485C31.0918 6.91065 33.4376 4.49756 36.3599 4.49756C37.5769 4.49756 38.6615 4.89171 39.503 5.57272V4.71653H42.2707V15.3586ZM39.3926 8.44784C38.794 7.65735 37.8442 7.13181 36.7376 7.13181C35.0544 7.13181 33.9699 8.51353 33.9699 10.0507C33.9699 11.7193 35.187 12.9477 36.8038 12.9477C37.8884 12.9477 38.8404 12.42 39.3926 11.6317V8.45003V8.44784Z" fill="white"/>
<path d="M55.3273 13.1864C54.0661 14.855 52.4713 15.5776 50.4591 15.5776C47.1392 15.5776 44.7051 13.1207 44.7051 10.0485C44.7051 6.97634 47.2055 4.49756 50.4812 4.49756C52.341 4.49756 53.9998 5.35374 54.996 6.62598L52.9595 8.40404C52.383 7.65734 51.5215 7.13181 50.4812 7.13181C48.8201 7.13181 47.581 8.42594 47.581 10.0507C47.581 11.6755 48.798 12.9477 50.5474 12.9477C51.7203 12.9477 52.6502 12.2448 53.1141 11.5441L55.3273 13.1908V13.1864Z" fill="white"/>
<path d="M66.6782 13.6682C65.6379 14.8966 63.9349 15.5776 62.2738 15.5776C59.0644 15.5776 56.6523 13.3835 56.6523 10.0485C56.6523 7.08582 58.6889 4.49756 61.8762 4.49756C64.8427 4.49756 66.9455 6.97634 66.9455 9.93905C66.9455 10.2237 66.9234 10.5106 66.8792 10.7514H59.4421C59.5967 12.2426 60.8138 13.274 62.3423 13.274C63.5594 13.274 64.5334 12.593 65.0415 12.0456L66.6782 13.6682ZM64.0011 8.66681C63.9128 7.72304 63.0491 6.80116 61.8762 6.80116C60.7033 6.80116 59.7072 7.70114 59.5746 8.66681H64.0011Z" fill="white"/>
<path d="M27.7346 32.4189C26.4512 31.278 25.7422 29.6533 25.7422 27.3059V18.4199H28.7307V27.5248C28.7307 28.9285 29.1062 29.7846 29.749 30.3781C30.4139 31.0153 31.3416 31.3656 32.3819 31.3656C33.4223 31.3656 34.3522 31.0153 35.0149 30.3781C35.6576 29.7846 36.0331 28.9306 36.0331 27.5248V18.4199H39.0217V27.3059C39.0217 29.6533 38.3126 31.278 37.0293 32.4189C35.8343 33.4722 34.1291 33.9977 32.3819 33.9977C30.6347 33.9977 28.9295 33.47 27.7346 32.4189Z" fill="white"/>
<path d="M48.7578 25.6617C48.559 25.596 48.1393 25.5522 47.7175 25.5522C46.4562 25.5522 45.46 26.4522 45.1066 27.0872V33.779H42.2285V23.1369H44.9962V24.2121C45.639 23.4216 46.8118 22.918 48.1173 22.918C48.5369 22.918 48.7821 22.9618 49.0914 23.0056L48.76 25.6595L48.7578 25.6617Z" fill="white"/>
<path d="M51.3027 33.7809V18.2031H54.1808V23.9074C55.0224 23.2483 56.0407 22.9198 57.2136 22.9198C60.1358 22.9198 62.4816 25.3329 62.4816 28.4708C62.4816 29.9182 61.9493 31.2342 61.1099 32.1999C60.1579 33.297 58.6537 33.9999 57.059 33.9999C55.9744 33.9999 54.9561 33.6714 54.0704 32.9247V33.7809H51.3027ZM54.1808 30.0518C54.7353 30.8423 55.6851 31.3678 56.7696 31.3678C58.3843 31.3678 59.6035 30.1394 59.6035 28.4708C59.6035 26.9358 58.519 25.5519 56.8359 25.5519C55.7292 25.5519 54.7772 26.0774 54.1808 26.8679V30.0496V30.0518Z" fill="white"/>
<path d="M75.425 33.781H72.6573V32.9248C71.7716 33.6715 70.7533 34 69.6688 34C68.0762 34 66.5698 33.2971 65.6178 32.2C64.7762 31.2343 64.2461 29.9183 64.2461 28.4709C64.2461 25.333 66.5919 22.9199 69.5142 22.9199C70.7312 22.9199 71.8158 23.3141 72.6573 23.9951V23.1389H75.425V33.781ZM72.5469 26.8702C71.9505 26.0797 70.9985 25.5542 69.8919 25.5542C68.211 25.5542 67.1242 26.9359 67.1242 28.4731C67.1242 30.1417 68.3413 31.3701 69.9581 31.3701C71.0427 31.3701 71.9947 30.8424 72.5469 30.0541V26.8724V26.8702Z" fill="white"/>
<path d="M78.7427 33.781V23.1389H81.5082V23.9951C82.3276 23.336 83.3459 22.9199 84.5409 22.9199C86.023 22.9199 87.3726 23.579 88.2583 24.6323C88.9674 25.4666 89.365 26.5417 89.365 28.3614V33.781H86.4869V28.1424C86.4869 27.0892 86.2439 26.5396 85.8441 26.1454C85.4686 25.7731 84.8921 25.552 84.2272 25.552C83.0102 25.552 82.014 26.3206 81.6164 26.868V33.7788H78.7383L78.7427 33.781Z" fill="white"/>
<path d="M97.2899 22.9199C100.544 22.9199 103 25.3987 103 28.4709C103 31.5431 100.544 34 97.2899 34C94.0363 34 91.5801 31.5431 91.5801 28.4709C91.5801 25.3987 94.0363 22.9199 97.2899 22.9199ZM97.2899 31.3679C98.9708 31.3679 100.124 30.0738 100.124 28.4709C100.124 26.868 98.973 25.552 97.2899 25.552C95.6068 25.552 94.456 26.868 94.456 28.4709C94.456 30.0738 95.6068 31.3679 97.2899 31.3679Z" fill="white"/>
<path d="M18.2033 26.1019L12.0605 23.4457V20.7217L22.685 25.3004V26.9033L12.0605 31.482V28.7558L18.2033 26.1019Z" fill="white"/>
</g>
</g>
</g>
<defs>
<clipPath id="clip0_710_39">
<rect width="103" height="34" fill="white"/>
</clipPath>
</defs>
</svg>
